<svg xmlns="http://www.w3.org/2000/svg" viewBox="57 34 48 64" shape-rendering="geometricPrecision">
  <path fill="#191718" paint-order="stroke fill" fill-rule="evenodd" d="M58.2 49c.4-6.4 5.6-12.6 12.6-12.9h18.6c7.4.1 12.8 5.7 12.8 13.3v5.1c-.3 3.4-1.7 6.2-4.5 8.4 2.5 1.5 4.6 3.9 4.8 7.4v7.2c-.4 5.7-4.6 10.9-11.5 11.3H71.2V97h-13zm3.1.5v44.4H68v-8.5h22.1c5.1 0 9-3.7 9.3-8.2v-6.4c-.1-4.2-4.7-5.9-8.9-7.7 3.8-1.2 8.3-3.7 8.7-8.9v-4.7c-.1-5-4.3-10.3-10.5-10.3H71.6c-4.6 0-10 3.8-10.3 9.7zm6.8-.6c.1-2 1.4-3.2 3.3-3.2h15.9c2.8 0 5.1 1.6 5.2 4.5V54c-.1 2.9-2.2 4.8-4.9 4.9h-6.9v6.6h6.2c3 .1 5.7 1.8 5.9 5.2V76c-.2 1.6-1.2 3-3.3 3H68.1zm3.1 27.3H89c.4 0 .6-.2.7-.5v-4.6c-.1-1.5-1.2-2.6-3-2.6h-9.1V55.8h9.6c1.2 0 2-.7 2.1-1.8v-3.5c0-1.1-.9-1.9-2.1-1.9H71.8c-.4 0-.7.3-.6.7z"/>
</svg>
